<svg id="visual" viewBox="0 0 1920 1080" width="1920" height="1080" xmlns="http://www.w3.org/2000/svg" xmlns:xlink="http://www.w3.org/1999/xlink" version="1.1"><path d="M0 44L24.7 51.2C49.3 58.3 98.7 72.7 147.8 72.7C197 72.7 246 58.3 295.2 65.7C344.3 73 393.7 102 443 125.5C492.3 149 541.7 167 590.8 174.2C640 181.3 689 177.7 738.2 157.8C787.3 138 836.7 102 886 93C935.3 84 984.7 102 1034 123.5C1083.3 145 1132.7 170 1181.8 153.8C1231 137.7 1280 80.3 1329.2 78.7C1378.3 77 1427.7 131 1477 131C1526.3 131 1575.7 77 1624.8 75.2C1674 73.3 1723 123.7 1772.2 154.2C1821.3 184.7 1870.7 195.3 1895.3 200.7L1920 206L1920 0L1895.3 0C1870.7 0 1821.3 0 1772.2 0C1723 0 1674 0 1624.8 0C1575.7 0 1526.3 0 1477 0C1427.7 0 1378.3 0 1329.2 0C1280 0 1231 0 1181.8 0C1132.7 0 1083.3 0 1034 0C984.7 0 935.3 0 886 0C836.7 0 787.3 0 738.2 0C689 0 640 0 590.8 0C541.7 0 492.3 0 443 0C393.7 0 344.3 0 295.2 0C246 0 197 0 147.8 0C98.7 0 49.3 0 24.7 0L0 0Z" fill="#071546"></path><path d="M0 573L24.7 551.5C49.3 530 98.7 487 147.8 415C197 343 246 242 295.2 290.5C344.3 339 393.7 537 443 549.7C492.3 562.3 541.7 389.7 590.8 319.5C640 249.3 689 281.7 738.2 294.3C787.3 307 836.7 300 886 327C935.3 354 984.7 415 1034 411.3C1083.3 407.7 1132.7 339.3 1181.8 377.2C1231 415 1280 559 1329.2 593.2C1378.3 627.3 1427.7 551.7 1477 485C1526.3 418.3 1575.7 360.7 1624.8 367.8C1674 375 1723 447 1772.2 499.3C1821.3 551.7 1870.7 584.3 1895.3 600.7L1920 617L1920 204L1895.3 198.7C1870.7 193.3 1821.3 182.7 1772.2 152.2C1723 121.7 1674 71.3 1624.8 73.2C1575.7 75 1526.3 129 1477 129C1427.7 129 1378.3 75 1329.2 76.7C1280 78.3 1231 135.7 1181.8 151.8C1132.7 168 1083.3 143 1034 121.5C984.7 100 935.3 82 886 91C836.7 100 787.3 136 738.2 155.8C689 175.7 640 179.3 590.8 172.2C541.7 165 492.3 147 443 123.5C393.7 100 344.3 71 295.2 63.7C246 56.3 197 70.7 147.8 70.7C98.7 70.7 49.3 56.3 24.7 49.2L0 42Z" fill="#022555"></path><path d="M0 789L24.7 745.8C49.3 702.7 98.7 616.3 147.8 530C197 443.7 246 357.3 295.2 395.2C344.3 433 393.7 595 443 602.2C492.3 609.3 541.7 461.7 590.8 413C640 364.3 689 414.7 738.2 420.2C787.3 425.7 836.7 386.3 886 417C935.3 447.7 984.7 548.3 1034 539.3C1083.3 530.3 1132.7 411.7 1181.8 427.8C1231 444 1280 595 1329.2 649C1378.3 703 1427.7 660 1477 622.2C1526.3 584.3 1575.7 551.7 1624.8 566C1674 580.3 1723 641.7 1772.2 690.3C1821.3 739 1870.7 775 1895.3 793L1920 811L1920 615L1895.3 598.7C1870.7 582.3 1821.3 549.7 1772.2 497.3C1723 445 1674 373 1624.8 365.8C1575.7 358.7 1526.3 416.3 1477 483C1427.7 549.7 1378.3 625.3 1329.2 591.2C1280 557 1231 413 1181.8 375.2C1132.7 337.3 1083.3 405.7 1034 409.3C984.7 413 935.3 352 886 325C836.7 298 787.3 305 738.2 292.3C689 279.7 640 247.3 590.8 317.5C541.7 387.7 492.3 560.3 443 547.7C393.7 535 344.3 337 295.2 288.5C246 240 197 341 147.8 413C98.7 485 49.3 528 24.7 549.5L0 571Z" fill="#003663"></path><path d="M0 951L24.7 931.3C49.3 911.7 98.7 872.3 147.8 822C197 771.7 246 710.3 295.2 731.8C344.3 753.3 393.7 857.7 443 864.8C492.3 872 541.7 782 590.8 737C640 692 689 692 738.2 722.7C787.3 753.3 836.7 814.7 886 848.8C935.3 883 984.7 890 1034 875.5C1083.3 861 1132.7 825 1181.8 834C1231 843 1280 897 1329.2 893.5C1378.3 890 1427.7 829 1477 827.3C1526.3 825.7 1575.7 883.3 1624.8 892.3C1674 901.3 1723 861.7 1772.2 854.3C1821.3 847 1870.7 872 1895.3 884.5L1920 897L1920 809L1895.3 791C1870.7 773 1821.3 737 1772.2 688.3C1723 639.7 1674 578.3 1624.8 564C1575.7 549.7 1526.3 582.3 1477 620.2C1427.7 658 1378.3 701 1329.2 647C1280 593 1231 442 1181.8 425.8C1132.7 409.7 1083.3 528.3 1034 537.3C984.7 546.3 935.3 445.7 886 415C836.7 384.3 787.3 423.7 738.2 418.2C689 412.7 640 362.3 590.8 411C541.7 459.7 492.3 607.3 443 600.2C393.7 593 344.3 431 295.2 393.2C246 355.3 197 441.7 147.8 528C98.7 614.3 49.3 700.7 24.7 743.8L0 787Z" fill="#024670"></path><path d="M0 1005L24.7 1006.8C49.3 1008.7 98.7 1012.3 147.8 978.2C197 944 246 872 295.2 866.7C344.3 861.3 393.7 922.7 443 935.3C492.3 948 541.7 912 590.8 894C640 876 689 876 738.2 901.2C787.3 926.3 836.7 976.7 886 989.2C935.3 1001.7 984.7 976.3 1034 944C1083.3 911.7 1132.7 872.3 1181.8 885C1231 897.7 1280 962.3 1329.2 971.3C1378.3 980.3 1427.7 933.7 1477 928.3C1526.3 923 1575.7 959 1624.8 977C1674 995 1723 995 1772.2 991.3C1821.3 987.7 1870.7 980.3 1895.3 976.7L1920 973L1920 895L1895.3 882.5C1870.7 870 1821.3 845 1772.2 852.3C1723 859.7 1674 899.3 1624.8 890.3C1575.7 881.3 1526.3 823.7 1477 825.3C1427.7 827 1378.3 888 1329.2 891.5C1280 895 1231 841 1181.8 832C1132.7 823 1083.3 859 1034 873.5C984.7 888 935.3 881 886 846.8C836.7 812.7 787.3 751.3 738.2 720.7C689 690 640 690 590.8 735C541.7 780 492.3 870 443 862.8C393.7 855.7 344.3 751.3 295.2 729.8C246 708.3 197 769.7 147.8 820C98.7 870.3 49.3 909.7 24.7 929.3L0 949Z" fill="#10567c"></path><path d="M0 1081L24.7 1081C49.3 1081 98.7 1081 147.8 1081C197 1081 246 1081 295.2 1081C344.3 1081 393.7 1081 443 1081C492.3 1081 541.7 1081 590.8 1081C640 1081 689 1081 738.2 1081C787.3 1081 836.7 1081 886 1081C935.3 1081 984.7 1081 1034 1081C1083.3 1081 1132.7 1081 1181.8 1081C1231 1081 1280 1081 1329.2 1081C1378.3 1081 1427.7 1081 1477 1081C1526.3 1081 1575.7 1081 1624.8 1081C1674 1081 1723 1081 1772.2 1081C1821.3 1081 1870.7 1081 1895.3 1081L1920 1081L1920 971L1895.3 974.7C1870.7 978.3 1821.3 985.7 1772.2 989.3C1723 993 1674 993 1624.8 975C1575.7 957 1526.3 921 1477 926.3C1427.7 931.7 1378.3 978.3 1329.2 969.3C1280 960.3 1231 895.7 1181.8 883C1132.7 870.3 1083.3 909.7 1034 942C984.7 974.3 935.3 999.7 886 987.2C836.7 974.7 787.3 924.3 738.2 899.2C689 874 640 874 590.8 892C541.7 910 492.3 946 443 933.3C393.7 920.7 344.3 859.3 295.2 864.7C246 870 197 942 147.8 976.2C98.7 1010.3 49.3 1006.7 24.7 1004.8L0 1003Z" fill="#226787"></path></svg>