<svg id="visual" viewBox="0 0 1980 1080" width="1980" height="1080" xmlns="http://www.w3.org/2000/svg" xmlns:xlink="http://www.w3.org/1999/xlink" version="1.1"><path d="M0 109L20.7 109C41.3 109 82.7 109 124 105.3C165.3 101.7 206.7 94.3 247.8 92.5C289 90.7 330 94.3 371.2 94.3C412.3 94.3 453.7 90.7 495 78.2C536.3 65.7 577.7 44.3 619 37.2C660.3 30 701.7 37 742.8 44.2C784 51.3 825 58.7 866.2 64.2C907.3 69.7 948.7 73.3 990 76.8C1031.3 80.3 1072.7 83.7 1114 87.2C1155.3 90.7 1196.7 94.3 1237.8 96.2C1279 98 1320 98 1361.2 90.8C1402.3 83.7 1443.7 69.3 1485 71.2C1526.3 73 1567.7 91 1609 89.2C1650.3 87.3 1691.7 65.7 1732.8 51.3C1774 37 1815 30 1856.2 33.7C1897.3 37.3 1938.7 51.7 1959.3 58.8L1980 66L1980 0L1959.3 0C1938.7 0 1897.3 0 1856.2 0C1815 0 1774 0 1732.8 0C1691.7 0 1650.3 0 1609 0C1567.7 0 1526.3 0 1485 0C1443.7 0 1402.3 0 1361.2 0C1320 0 1279 0 1237.8 0C1196.7 0 1155.3 0 1114 0C1072.7 0 1031.3 0 990 0C948.7 0 907.3 0 866.2 0C825 0 784 0 742.8 0C701.7 0 660.3 0 619 0C577.7 0 536.3 0 495 0C453.7 0 412.3 0 371.2 0C330 0 289 0 247.8 0C206.7 0 165.3 0 124 0C82.7 0 41.3 0 20.7 0L0 0Z" fill="#682e9b"></path><path d="M0 217L20.7 211.7C41.3 206.3 82.7 195.7 124 179.5C165.3 163.3 206.7 141.7 247.8 136.2C289 130.7 330 141.3 371.2 152.2C412.3 163 453.7 174 495 175.8C536.3 177.7 577.7 170.3 619 166.7C660.3 163 701.7 163 742.8 164.8C784 166.7 825 170.3 866.2 170.3C907.3 170.3 948.7 166.7 990 161.2C1031.3 155.7 1072.7 148.3 1114 143C1155.3 137.7 1196.7 134.3 1237.8 132.7C1279 131 1320 131 1361.2 134.5C1402.3 138 1443.7 145 1485 146.7C1526.3 148.3 1567.7 144.7 1609 130.3C1650.3 116 1691.7 91 1732.8 85.7C1774 80.3 1815 94.7 1856.2 109C1897.3 123.3 1938.7 137.7 1959.3 144.8L1980 152L1980 64L1959.3 56.8C1938.7 49.7 1897.3 35.3 1856.2 31.7C1815 28 1774 35 1732.8 49.3C1691.7 63.7 1650.3 85.3 1609 87.2C1567.7 89 1526.3 71 1485 69.2C1443.7 67.3 1402.3 81.7 1361.2 88.8C1320 96 1279 96 1237.8 94.2C1196.7 92.3 1155.3 88.7 1114 85.2C1072.7 81.7 1031.3 78.3 990 74.8C948.7 71.3 907.3 67.7 866.2 62.2C825 56.7 784 49.3 742.8 42.2C701.7 35 660.3 28 619 35.2C577.7 42.3 536.3 63.7 495 76.2C453.7 88.7 412.3 92.3 371.2 92.3C330 92.3 289 88.7 247.8 90.5C206.7 92.3 165.3 99.7 124 103.3C82.7 107 41.3 107 20.7 107L0 107Z" fill="#4a2474"></path><path d="M0 303L20.7 286.8C41.3 270.7 82.7 238.3 124 213.2C165.3 188 206.7 170 247.8 168.2C289 166.3 330 180.7 371.2 189.7C412.3 198.7 453.7 202.3 495 204.2C536.3 206 577.7 206 619 213.2C660.3 220.3 701.7 234.7 742.8 234.7C784 234.7 825 220.3 866.2 220.3C907.3 220.3 948.7 234.7 990 225.7C1031.3 216.7 1072.7 184.3 1114 179C1155.3 173.7 1196.7 195.3 1237.8 206.2C1279 217 1320 217 1361.2 220.7C1402.3 224.3 1443.7 231.7 1485 224.5C1526.3 217.3 1567.7 195.7 1609 168.7C1650.3 141.7 1691.7 109.3 1732.8 114.7C1774 120 1815 163 1856.2 191.7C1897.3 220.3 1938.7 234.7 1959.3 241.8L1980 249L1980 150L1959.3 142.8C1938.7 135.7 1897.3 121.3 1856.2 107C1815 92.7 1774 78.3 1732.8 83.7C1691.7 89 1650.3 114 1609 128.3C1567.7 142.7 1526.3 146.3 1485 144.7C1443.7 143 1402.3 136 1361.2 132.5C1320 129 1279 129 1237.8 130.7C1196.7 132.3 1155.3 135.7 1114 141C1072.7 146.3 1031.3 153.7 990 159.2C948.7 164.7 907.3 168.3 866.2 168.3C825 168.3 784 164.7 742.8 162.8C701.7 161 660.3 161 619 164.7C577.7 168.3 536.3 175.7 495 173.8C453.7 172 412.3 161 371.2 150.2C330 139.3 289 128.7 247.8 134.2C206.7 139.7 165.3 161.3 124 177.5C82.7 193.7 41.3 204.3 20.7 209.7L0 215Z" fill="#301a4f"></path><path d="M0 401L20.7 377.5C41.3 354 82.7 307 124 276.3C165.3 245.7 206.7 231.3 247.8 233.2C289 235 330 253 371.2 276.3C412.3 299.7 453.7 328.3 495 346.3C536.3 364.3 577.7 371.7 619 364.5C660.3 357.3 701.7 335.7 742.8 317.7C784 299.7 825 285.3 866.2 289C907.3 292.7 948.7 314.3 990 310.7C1031.3 307 1072.7 278 1114 272.5C1155.3 267 1196.7 285 1237.8 285C1279 285 1320 267 1361.2 277.8C1402.3 288.7 1443.7 328.3 1485 346.3C1526.3 364.3 1567.7 360.7 1609 346.3C1650.3 332 1691.7 307 1732.8 308.8C1774 310.7 1815 339.3 1856.2 339.3C1897.3 339.3 1938.7 310.7 1959.3 296.3L1980 282L1980 247L1959.3 239.8C1938.7 232.7 1897.3 218.3 1856.2 189.7C1815 161 1774 118 1732.8 112.7C1691.7 107.3 1650.3 139.7 1609 166.7C1567.7 193.7 1526.3 215.3 1485 222.5C1443.7 229.7 1402.3 222.3 1361.2 218.7C1320 215 1279 215 1237.8 204.2C1196.7 193.3 1155.3 171.7 1114 177C1072.7 182.3 1031.3 214.7 990 223.7C948.7 232.7 907.3 218.3 866.2 218.3C825 218.3 784 232.7 742.8 232.7C701.7 232.7 660.3 218.3 619 211.2C577.7 204 536.3 204 495 202.2C453.7 200.3 412.3 196.7 371.2 187.7C330 178.7 289 164.3 247.8 166.2C206.7 168 165.3 186 124 211.2C82.7 236.3 41.3 268.7 20.7 284.8L0 301Z" fill="#190f2b"></path><path d="M0 519L20.7 526.3C41.3 533.7 82.7 548.3 124 534C165.3 519.7 206.7 476.3 247.8 501.5C289 526.7 330 620.3 371.2 651C412.3 681.7 453.7 649.3 495 631.3C536.3 613.3 577.7 609.7 619 591.7C660.3 573.7 701.7 541.3 742.8 526.8C784 512.3 825 515.7 866.2 504.8C907.3 494 948.7 469 990 488.8C1031.3 508.7 1072.7 573.3 1114 582.3C1155.3 591.3 1196.7 544.7 1237.8 510.5C1279 476.3 1320 454.7 1361.2 470.8C1402.3 487 1443.7 541 1485 557.2C1526.3 573.3 1567.7 551.7 1609 542.7C1650.3 533.7 1691.7 537.3 1732.8 530.2C1774 523 1815 505 1856.2 521.2C1897.3 537.3 1938.7 587.7 1959.3 612.8L1980 638L1980 280L1959.3 294.3C1938.7 308.7 1897.3 337.3 1856.2 337.3C1815 337.3 1774 308.7 1732.8 306.8C1691.7 305 1650.3 330 1609 344.3C1567.7 358.7 1526.3 362.3 1485 344.3C1443.7 326.3 1402.3 286.7 1361.2 275.8C1320 265 1279 283 1237.8 283C1196.7 283 1155.3 265 1114 270.5C1072.7 276 1031.3 305 990 308.7C948.7 312.3 907.3 290.7 866.2 287C825 283.3 784 297.7 742.8 315.7C701.7 333.7 660.3 355.3 619 362.5C577.7 369.7 536.3 362.3 495 344.3C453.7 326.3 412.3 297.7 371.2 274.3C330 251 289 233 247.8 231.2C206.7 229.3 165.3 243.7 124 274.3C82.7 305 41.3 352 20.7 375.5L0 399Z" fill="#0c0017"></path><path d="M0 638L20.7 630.8C41.3 623.7 82.7 609.3 124 598.5C165.3 587.7 206.7 580.3 247.8 611C289 641.7 330 710.3 371.2 733.8C412.3 757.3 453.7 735.7 495 719.3C536.3 703 577.7 692 619 679.3C660.3 666.7 701.7 652.3 742.8 638C784 623.7 825 609.3 866.2 584.2C907.3 559 948.7 523 990 559C1031.3 595 1072.7 703 1114 726.3C1155.3 749.7 1196.7 688.3 1237.8 648.7C1279 609 1320 591 1361.2 594.7C1402.3 598.3 1443.7 623.7 1485 625.5C1526.3 627.3 1567.7 605.7 1609 594.8C1650.3 584 1691.7 584 1732.8 587.7C1774 591.3 1815 598.7 1856.2 611.3C1897.3 624 1938.7 642 1959.3 651L1980 660L1980 636L1959.3 610.8C1938.7 585.7 1897.3 535.3 1856.2 519.2C1815 503 1774 521 1732.8 528.2C1691.7 535.3 1650.3 531.7 1609 540.7C1567.7 549.7 1526.3 571.3 1485 555.2C1443.7 539 1402.3 485 1361.2 468.8C1320 452.7 1279 474.3 1237.8 508.5C1196.7 542.7 1155.3 589.3 1114 580.3C1072.7 571.3 1031.3 506.7 990 486.8C948.7 467 907.3 492 866.2 502.8C825 513.7 784 510.3 742.8 524.8C701.7 539.3 660.3 571.7 619 589.7C577.7 607.7 536.3 611.3 495 629.3C453.7 647.3 412.3 679.7 371.2 649C330 618.3 289 524.7 247.8 499.5C206.7 474.3 165.3 517.7 124 532C82.7 546.3 41.3 531.7 20.7 524.3L0 517Z" fill="#0c0017"></path><path d="M0 930L20.7 906.5C41.3 883 82.7 836 124 803.5C165.3 771 206.7 753 247.8 771C289 789 330 843 371.2 852C412.3 861 453.7 825 495 807C536.3 789 577.7 789 619 789C660.3 789 701.7 789 742.8 812.5C784 836 825 883 866.2 902.8C907.3 922.7 948.7 915.3 990 917.2C1031.3 919 1072.7 930 1114 939C1155.3 948 1196.7 955 1237.8 947.7C1279 940.3 1320 918.7 1361.2 925.8C1402.3 933 1443.7 969 1485 963.7C1526.3 958.3 1567.7 911.7 1609 874C1650.3 836.3 1691.7 807.7 1732.8 802.3C1774 797 1815 815 1856.2 813.2C1897.3 811.3 1938.7 789.7 1959.3 778.8L1980 768L1980 658L1959.3 649C1938.7 640 1897.3 622 1856.2 609.3C1815 596.7 1774 589.3 1732.8 585.7C1691.7 582 1650.3 582 1609 592.8C1567.7 603.7 1526.3 625.3 1485 623.5C1443.7 621.7 1402.3 596.3 1361.2 592.7C1320 589 1279 607 1237.8 646.7C1196.7 686.3 1155.3 747.7 1114 724.3C1072.7 701 1031.3 593 990 557C948.7 521 907.3 557 866.2 582.2C825 607.3 784 621.7 742.8 636C701.7 650.3 660.3 664.7 619 677.3C577.7 690 536.3 701 495 717.3C453.7 733.7 412.3 755.3 371.2 731.8C330 708.3 289 639.7 247.8 609C206.7 578.3 165.3 585.7 124 596.5C82.7 607.3 41.3 621.7 20.7 628.8L0 636Z" fill="#190f2b"></path><path d="M0 984L20.7 969.5C41.3 955 82.7 926 124 895.3C165.3 864.7 206.7 832.3 247.8 834.2C289 836 330 872 371.2 886.5C412.3 901 453.7 894 495 886.8C536.3 879.7 577.7 872.3 619 868.7C660.3 865 701.7 865 742.8 883C784 901 825 937 866.2 955C907.3 973 948.7 973 990 971.2C1031.3 969.3 1072.7 965.7 1114 969.3C1155.3 973 1196.7 984 1237.8 989.5C1279 995 1320 995 1361.2 998.5C1402.3 1002 1443.7 1009 1485 991C1526.3 973 1567.7 930 1609 892.2C1650.3 854.3 1691.7 821.7 1732.8 823.3C1774 825 1815 861 1856.2 866.5C1897.3 872 1938.7 847 1959.3 834.5L1980 822L1980 766L1959.3 776.8C1938.7 787.7 1897.3 809.3 1856.2 811.2C1815 813 1774 795 1732.8 800.3C1691.7 805.7 1650.3 834.3 1609 872C1567.7 909.7 1526.3 956.3 1485 961.7C1443.7 967 1402.3 931 1361.2 923.8C1320 916.7 1279 938.3 1237.8 945.7C1196.7 953 1155.3 946 1114 937C1072.7 928 1031.3 917 990 915.2C948.7 913.3 907.3 920.7 866.2 900.8C825 881 784 834 742.8 810.5C701.7 787 660.3 787 619 787C577.7 787 536.3 787 495 805C453.7 823 412.3 859 371.2 850C330 841 289 787 247.8 769C206.7 751 165.3 769 124 801.5C82.7 834 41.3 881 20.7 904.5L0 928Z" fill="#301a4f"></path><path d="M0 1016L20.7 1019.7C41.3 1023.3 82.7 1030.7 124 1036.2C165.3 1041.7 206.7 1045.3 247.8 1047.2C289 1049 330 1049 371.2 1043.5C412.3 1038 453.7 1027 495 1025.2C536.3 1023.3 577.7 1030.7 619 1030.7C660.3 1030.7 701.7 1023.3 742.8 1026.8C784 1030.3 825 1044.7 866.2 1048.3C907.3 1052 948.7 1045 990 1046.8C1031.3 1048.7 1072.7 1059.3 1114 1057.5C1155.3 1055.7 1196.7 1041.3 1237.8 1034.2C1279 1027 1320 1027 1361.2 1034.2C1402.3 1041.3 1443.7 1055.7 1485 1057.5C1526.3 1059.3 1567.7 1048.7 1609 1036.2C1650.3 1023.7 1691.7 1009.3 1732.8 1012.8C1774 1016.3 1815 1037.7 1856.2 1048.3C1897.3 1059 1938.7 1059 1959.3 1059L1980 1059L1980 820L1959.3 832.5C1938.7 845 1897.3 870 1856.2 864.5C1815 859 1774 823 1732.8 821.3C1691.7 819.7 1650.3 852.3 1609 890.2C1567.7 928 1526.3 971 1485 989C1443.7 1007 1402.3 1000 1361.2 996.5C1320 993 1279 993 1237.8 987.5C1196.7 982 1155.3 971 1114 967.3C1072.7 963.7 1031.3 967.3 990 969.2C948.7 971 907.3 971 866.2 953C825 935 784 899 742.8 881C701.7 863 660.3 863 619 866.7C577.7 870.3 536.3 877.7 495 884.8C453.7 892 412.3 899 371.2 884.5C330 870 289 834 247.8 832.2C206.7 830.3 165.3 862.7 124 893.3C82.7 924 41.3 953 20.7 967.5L0 982Z" fill="#4a2474"></path><path d="M0 1081L20.7 1081C41.3 1081 82.7 1081 124 1081C165.3 1081 206.7 1081 247.8 1081C289 1081 330 1081 371.2 1081C412.3 1081 453.7 1081 495 1081C536.3 1081 577.7 1081 619 1081C660.3 1081 701.7 1081 742.8 1081C784 1081 825 1081 866.2 1081C907.3 1081 948.7 1081 990 1081C1031.3 1081 1072.7 1081 1114 1081C1155.3 1081 1196.7 1081 1237.8 1081C1279 1081 1320 1081 1361.2 1081C1402.3 1081 1443.7 1081 1485 1081C1526.3 1081 1567.7 1081 1609 1081C1650.3 1081 1691.7 1081 1732.8 1081C1774 1081 1815 1081 1856.2 1081C1897.3 1081 1938.7 1081 1959.3 1081L1980 1081L1980 1057L1959.3 1057C1938.7 1057 1897.3 1057 1856.2 1046.3C1815 1035.7 1774 1014.3 1732.8 1010.8C1691.7 1007.3 1650.3 1021.7 1609 1034.2C1567.7 1046.7 1526.3 1057.3 1485 1055.5C1443.7 1053.7 1402.3 1039.3 1361.2 1032.2C1320 1025 1279 1025 1237.8 1032.2C1196.7 1039.3 1155.3 1053.7 1114 1055.5C1072.7 1057.3 1031.3 1046.7 990 1044.8C948.7 1043 907.3 1050 866.2 1046.3C825 1042.7 784 1028.3 742.8 1024.8C701.7 1021.3 660.3 1028.7 619 1028.7C577.7 1028.7 536.3 1021.3 495 1023.2C453.7 1025 412.3 1036 371.2 1041.5C330 1047 289 1047 247.8 1045.2C206.7 1043.3 165.3 1039.7 124 1034.2C82.7 1028.7 41.3 1021.3 20.7 1017.7L0 1014Z" fill="#682e9b"></path></svg>